<?xml version="1.0" encoding="UTF-8"?>
<svg xmlns="http://www.w3.org/2000/svg" viewBox="0 0 200 200">
  <!-- Outer circle with navy blue background -->
  <circle cx="100" cy="100" r="95" fill="#1B2951" stroke="#ffffff" stroke-width="2"/>
  
  <!-- Inner white circle -->
  <circle cx="100" cy="100" r="70" fill="#ffffff"/>
  
  <!-- Water splash design in center -->
  <g transform="translate(100, 100)">
    <!-- Main water splash -->
    <g fill="#00BFFF">
      <path d="M-25 -10 C-20 -25, -5 -30, 0 -15 C5 -30, 20 -25, 25 -10 C20 -5, 5 0, 0 -15 C-5 0, -20 -5, -25 -10"/>
      <path d="M-30 5 C-25 -10, -10 -15, -5 0 C0 -15, 15 -10, 20 5 C15 10, 0 15, -5 0 C-10 15, -25 10, -30 5"/>
      <path d="M-15 20 C-10 5, 5 0, 10 15 C15 0, 30 5, 35 20 C30 25, 15 30, 10 15 C5 30, -10 25, -15 20"/>
    </g>
    
    <!-- Wave design -->
    <path d="M35 15 Q50 5, 65 15 T95 15" stroke="#00BFFF" stroke-width="4" fill="none"/>
    <path d="M35 20 Q50 10, 65 20 T95 20" stroke="#0099CC" stroke-width="3" fill="none"/>
  </g>
  
  <!-- Top text curve -->
  <defs>
    <path id="top-curve" d="M 30 100 A 70 70 0 0 1 170 100"/>
  </defs>
  <text font-family="Arial, sans-serif" font-size="14" font-weight="bold" fill="#ffffff">
    <textPath href="#top-curve" startOffset="50%" text-anchor="middle">
      Válvulas, mediciones y soluciones
    </textPath>
  </text>
  
  <!-- Bottom text -->
  <text x="100" y="185" font-family="Arial, sans-serif" font-size="16" font-weight="bold" fill="#ffffff" text-anchor="middle">
    VMS HYDRAULICS, S.A.
  </text>
</svg>
